
<svg width="800" height="700" xmlns="http://www.w3.org/2000/svg">
  <!-- DFD диаграмма -->
  <style>
    .entity {
      fill: white;
      stroke: black;
      stroke-width: 2;
    }
    .process {
      fill: white;
      stroke: black;
      stroke-width: 2;
      rx: 10;
      ry: 10;
    }
    .datastore {
      fill: white;
      stroke: black;
      stroke-width: 2;
    }
    .dataflow {
      stroke: black;
      stroke-width: 1.5;
      fill: none;
      marker-end: url(#arrowhead);
    }
    .text {
      font-family: Arial, sans-serif;
      font-size: 14px;
    }
    .small-text {
      font-family: Arial, sans-serif;
      font-size: 12px;
    }
    .title {
      font-family: Arial, sans-serif;
      font-size: 18px;
      font-weight: bold;
    }
    .subtitle {
      font-family: Arial, sans-serif;
      font-size: 16px;
      font-weight: bold;
    }
    .level {
      fill: none;
      stroke: black;
      stroke-width: 1;
      stroke-dasharray: 5,5;
    }
  </style>
  
  <defs>
    <marker id="arrowhead" markerWidth="10" markerHeight="7" refX="9" refY="3.5" orient="auto">
      <polygon points="0 0, 10 3.5, 0 7" />
    </marker>
  </defs>
  
  <!-- Заголовок -->
  <text x="400" y="30" class="title" text-anchor="middle">Data Flow Diagram системы MarGO</text>
  
  <!-- Концептуальный уровень -->
  <rect x="50" y="50" width="700" height="250" class="level" />
  <text x="400" y="75" class="subtitle" text-anchor="middle">Концептуальный уровень</text>
  
  <!-- Внешняя сущность: Пользователь -->
  <rect x="100" y="120" width="120" height="60" class="entity" />
  <text x="160" y="155" class="text" text-anchor="middle">Пользователь</text>
  
  <!-- Процесс: Оформление запроса -->
  <rect x="330" y="120" width="140" height="60" class="process" />
  <text x="400" y="155" class="text" text-anchor="middle">Авторизация</text>
  
  <!-- Хранилище данных: Профиль -->
  <rect x="580" y="120" width="120" height="60" class="datastore" />
  <text x="640" y="155" class="text" text-anchor="middle">Профиль</text>
  
  <!-- Процесс: Прохождение урока -->
  <rect x="330" y="210" width="140" height="60" class="process" />
  <text x="400" y="245" class="text" text-anchor="middle">Прохождение урока</text>
  
  <!-- Потоки данных -->
  <path d="M 220 150 L 330 150" class="dataflow" />
  <text x="275" y="140" class="small-text" text-anchor="middle">Данные для входа</text>
  
  <path d="M 470 150 L 580 150" class="dataflow" />
  <text x="525" y="140" class="small-text" text-anchor="middle">Информация о профиле</text>
  
  <path d="M 160 180 L 160 240 L 330 240" class="dataflow" />
  <text x="245" y="230" class="small-text" text-anchor="middle">Запрос урока</text>
  
  <path d="M 400 180 L 400 210" class="dataflow" />
  <text x="420" y="195" class="small-text" text-anchor="middle">Данные профиля</text>
  
  <!-- Логический уровень -->
  <rect x="50" y="350" width="700" height="320" class="level" />
  <text x="400" y="375" class="subtitle" text-anchor="middle">Логический уровень</text>
  
  <!-- Внешняя сущность: Пользователь -->
  <rect x="100" y="420" width="120" height="60" class="entity" />
  <text x="160" y="455" class="text" text-anchor="middle">Пользователь</text>
  
  <!-- Процесс: Запрос урока -->
  <rect x="100" y="520" width="120" height="60" class="process" />
  <text x="160" y="555" class="text" text-anchor="middle">Запрос урока</text>
  
  <!-- Процесс: Изучение материала -->
  <rect x="280" y="420" width="120" height="60" class="process" />
  <text x="340" y="455" class="text" text-anchor="middle">Загрузка урока</text>
  
  <!-- Процесс: Выполнение теста -->
  <rect x="280" y="520" width="120" height="60" class="process" />
  <text x="340" y="555" class="text" text-anchor="middle">Тестирование</text>
  
  <!-- Процесс: Проверка результатов -->
  <rect x="280" y="600" width="120" height="60" class="process" />
  <text x="340" y="635" class="text" text-anchor="middle">Проверка ответов</text>
  
  <!-- Хранилище данных: Уроки -->
  <rect x="460" y="420" width="120" height="60" class="datastore" />
  <text x="520" y="455" class="text" text-anchor="middle">База уроков</text>
  
  <!-- Хранилище данных: Тесты -->
  <rect x="460" y="520" width="120" height="60" class="datastore" />
  <text x="520" y="555" class="text" text-anchor="middle">База тестов</text>
  
  <!-- Хранилище данных: Прогресс -->
  <rect x="460" y="600" width="120" height="60" class="datastore" />
  <text x="520" y="635" class="text" text-anchor="middle">Прогресс</text>
  
  <!-- Потоки данных логического уровня -->
  <path d="M 160 480 L 160 520" class="dataflow" />
  <text x="180" y="500" class="small-text" text-anchor="middle">Выбор урока</text>
  
  <path d="M 220 450 L 280 450" class="dataflow" />
  <text x="250" y="440" class="small-text" text-anchor="middle">Запрос</text>
  
  <path d="M 220 550 L 280 550" class="dataflow" />
  <text x="250" y="540" class="small-text" text-anchor="middle">Запрос теста</text>
  
  <path d="M 400 450 L 460 450" class="dataflow" />
  <text x="430" y="440" class="small-text" text-anchor="middle">Поиск</text>
  
  <path d="M 460 450 L 430 450 L 430 400 L 340 400 L 340 420" class="dataflow" />
  <text x="385" y="390" class="small-text" text-anchor="middle">Материалы урока</text>
  
  <path d="M 340 480 L 340 520" class="dataflow" />
  <text x="360" y="500" class="small-text" text-anchor="middle">Запуск теста</text>
  
  <path d="M 400 550 L 460 550" class="dataflow" />
  <text x="430" y="540" class="small-text" text-anchor="middle">Поиск</text>
  
  <path d="M 460 550 L 430 550 L 430 500 L 340 500 L 340 520" class="dataflow" />
  <text x="385" y="490" class="small-text" text-anchor="middle">Тестовые задания</text>
  
  <path d="M 340 580 L 340 600" class="dataflow" />
  <text x="360" y="590" class="small-text" text-anchor="middle">Результаты</text>
  
  <path d="M 400 630 L 460 630" class="dataflow" />
  <text x="430" y="620" class="small-text" text-anchor="middle">Сохранение</text>
  
  <path d="M 340 600 L 310 600 L 310 490 L 160 490 L 160 480" class="dataflow" />
  <text x="245" y="480" class="small-text" text-anchor="middle">Отображение результатов</text>
</svg>
